<?xml version="1.0" encoding="UTF-8"?>
<!DOCTYPE svg PUBLIC "-//W3C//DTD SVG 1.1//EN" "http://www.w3.org/Graphics/SVG/1.1/DTD/svg11.dtd">
<!-- Creator: CorelDRAW 2017 -->
<svg xmlns="http://www.w3.org/2000/svg" xml:space="preserve" width="297mm" height="210mm" version="1.1" style="shape-rendering:geometricPrecision; text-rendering:geometricPrecision; image-rendering:optimizeQuality; fill-rule:evenodd; clip-rule:evenodd"
viewBox="0 0 29700 21000"
 xmlns:xlink="http://www.w3.org/1999/xlink">
 <defs>
  <style type="text/css">
   <![CDATA[
    .fil0 {fill:#008CCF;fill-rule:nonzero}
    .fil2 {fill:#77BF4B;fill-rule:nonzero}
    .fil1 {fill:#F9CC0A;fill-rule:nonzero}
    .fil4 {fill:url(#id0)}
    .fil3 {fill:url(#id1)}
    .fil5 {fill:url(#id2)}
    .fil6 {fill:url(#id3);fill-rule:nonzero}
   ]]>
  </style>
  <linearGradient id="id0" gradientUnits="userSpaceOnUse" x1="21407" y1="7959" x2="7353" y2="3669">
   <stop offset="0" style="stop-opacity:1; stop-color:#FFCC00"/>
   <stop offset="0.258824" style="stop-opacity:1; stop-color:#BBC625"/>
   <stop offset="1" style="stop-opacity:1; stop-color:#77BF4B"/>
  </linearGradient>
  <linearGradient id="id1" gradientUnits="userSpaceOnUse" x1="12416" y1="4859" x2="22571" y2="13784">
   <stop offset="0" style="stop-opacity:1; stop-color:#7B2F62"/>
   <stop offset="0.290196" style="stop-opacity:1; stop-color:#AD4244"/>
   <stop offset="1" style="stop-opacity:1; stop-color:#DF5626"/>
  </linearGradient>
  <linearGradient id="id2" gradientUnits="userSpaceOnUse" x1="7961" y1="13557" x2="23804" y2="13557">
   <stop offset="0" style="stop-opacity:1; stop-color:#7B2F62"/>
   <stop offset="0.8" style="stop-opacity:1; stop-color:#7B2F62"/>
   <stop offset="1" style="stop-opacity:1; stop-color:#7B2F62"/>
  </linearGradient>
  <linearGradient id="id3" gradientUnits="userSpaceOnUse" x1="9893" y1="19327" x2="12045" y2="6895">
   <stop offset="0" style="stop-opacity:1; stop-color:#008CCF"/>
   <stop offset="0.690196" style="stop-opacity:1; stop-color:#085C84"/>
   <stop offset="1" style="stop-opacity:1; stop-color:#112C38"/>
  </linearGradient>
 </defs>
 <g id="Слой_x0020_1">
  <metadata id="CorelCorpID_0Corel-Layer"/>
  <g id="_1936492476064">
   <path class="fil0" d="M22528 7024c1293,3560 -148,7473 -3260,9592 2430,-2214 3444,-5662 2294,-8830 -1540,-4242 -6377,-6374 -10803,-4763 -711,259 -1369,599 -1965,1005 4229,-4158 11626,-2809 13734,2995z"/>
   <path class="fil1" d="M21624 4663c540,630 1002,1351 1359,2152 1888,4235 160,9116 -3860,10902 -3653,1624 -7942,133 -10111,-3331 2314,2698 6079,3728 9338,2280 4020,-1787 5748,-6668 3860,-10902 -172,-386 -369,-753 -586,-1101z"/>
   <path class="fil2" d="M23763 11270c-45,832 -211,1674 -510,2502 -1576,4374 -6431,6624 -10417,5180 -3987,-1444 -6027,-5875 -5109,-9459 5,3346 1497,6792 5279,8161 3782,1369 8841,-807 10417,-5180 144,-399 257,-801 340,-1204z"/>
   <path class="fil3" d="M14946 1547c4641,0 8404,3540 8404,7906 0,3664 -2776,6935 -6246,7642 2985,-1251 5094,-4008 5094,-7269 0,-4366 -3763,-7906 -8404,-7906 -746,0 -1469,92 -2158,264 1016,-410 2134,-637 3310,-637z"/>
   <path class="fil4" d="M13997 2114c4241,0 7711,3268 7982,7400 -1626,-4723 -6264,-7846 -10717,-4759 -335,-98 -2684,-715 -4480,1856 1290,-2660 4036,-4497 7215,-4497z"/>
   <path class="fil5" d="M23439 8094c237,796 365,1643 365,2522 0,4641 -3566,8404 -7965,8404 -3998,0 -7307,-3108 -7878,-7158 1015,3409 4034,5882 7600,5882 4399,0 7965,-3763 7965,-8404 0,-423 -30,-839 -87,-1246z"/>
   <path class="fil0" d="M19875 13367c-12,-18 -26,-35 -42,-51 -1050,-1050 -2100,-2098 -3150,-3148 1047,-1047 2104,-2088 3150,-3133 127,-127 127,-333 0,-459l-1354 -1354c-113,-113 -287,-125 -414,-38 -25,15 -48,33 -70,54l-3122 3122 -2559 -2559c-667,-574 -1047,-964 -2118,-945 -346,6 -698,56 -1015,150 -1047,310 -1870,1060 -2323,1910 -318,596 -563,1262 -727,1934 475,-1194 1439,-2038 2557,-2038l26 0 9 0c590,0 1137,238 1589,645l0 0c60,48 118,104 176,169l2544 2544 -3152 3152c-137,137 -137,359 0,496 447,447 905,905 1345,1345 137,137 359,137 496,0l3152 -3152 3122 3122c137,137 359,137 496,0 444,-444 901,-871 1344,-1314 122,-122 135,-312 39,-449z"/>
   <path class="fil6" d="M10315 7455c-785,-621 -1724,94 -2266,1197 -366,745 -416,1636 -416,2496 0,4544 4000,7989 8410,8209 -425,63 -860,96 -1303,96 -9279,0 -11188,-12680 -6047,-12684 619,-1 1160,270 1622,686z"/>
  </g>
 </g>
</svg>
